<svg xmlns="http://www.w3.org/2000/svg" xmlns:xlink="http://www.w3.org/1999/xlink" width="246" zoomAndPan="magnify" viewBox="0 0 184.5 49.499998" height="66" preserveAspectRatio="xMidYMid meet" version="1.0"><defs><g/><clipPath id="b5fa0953cc"><path d="M 7.546875 0.703125 L 183.324219 0.703125 L 183.324219 48.746094 L 7.546875 48.746094 Z M 7.546875 0.703125 " clip-rule="nonzero"/></clipPath><clipPath id="4e4747f259"><path d="M 133.808594 4.488281 L 175.484375 4.488281 L 175.484375 45 L 133.808594 45 Z M 133.808594 4.488281 " clip-rule="nonzero"/></clipPath></defs><g clip-path="url(#b5fa0953cc)"><path stroke-linecap="butt" transform="matrix(0.192984, 0, 0, 0.192923, 7.548201, 0.703894)" fill="none" stroke-linejoin="miter" d="M -0.00687154 -0.00398425 L 910.833394 -0.00398425 L 910.833394 249.02253 L -0.00687154 249.02253 Z M -0.00687154 -0.00398425 " stroke="#ffffff" stroke-width="15.434515" stroke-opacity="1" stroke-miterlimit="4"/></g><g fill="#ffffff" fill-opacity="1"><g transform="translate(13.327576, 32.176878)"><g><path d="M 1.828125 0 L 1.828125 -15.796875 L 7 -15.796875 C 8.707031 -15.796875 9.992188 -15.441406 10.859375 -14.734375 C 11.722656 -14.023438 12.15625 -12.976562 12.15625 -11.59375 C 12.15625 -10.851562 11.945312 -10.195312 11.53125 -9.625 C 11.113281 -9.0625 10.539062 -8.625 9.8125 -8.3125 C 10.664062 -8.070312 11.335938 -7.613281 11.828125 -6.9375 C 12.328125 -6.269531 12.578125 -5.476562 12.578125 -4.5625 C 12.578125 -3.144531 12.117188 -2.03125 11.203125 -1.21875 C 10.285156 -0.40625 8.988281 0 7.3125 0 Z M 3.921875 -7.390625 L 3.921875 -1.703125 L 7.359375 -1.703125 C 8.328125 -1.703125 9.085938 -1.953125 9.640625 -2.453125 C 10.203125 -2.960938 10.484375 -3.65625 10.484375 -4.53125 C 10.484375 -6.4375 9.453125 -7.390625 7.390625 -7.390625 Z M 3.921875 -9.0625 L 7.0625 -9.0625 C 7.96875 -9.0625 8.691406 -9.285156 9.234375 -9.734375 C 9.785156 -10.191406 10.0625 -10.8125 10.0625 -11.59375 C 10.0625 -12.46875 9.804688 -13.097656 9.296875 -13.484375 C 8.796875 -13.878906 8.03125 -14.078125 7 -14.078125 L 3.921875 -14.078125 Z M 3.921875 -9.0625 "/></g></g></g><g fill="#ffffff" fill-opacity="1"><g transform="translate(27.164015, 32.176878)"><g><path d="M 0.984375 -5.984375 C 0.984375 -7.128906 1.207031 -8.160156 1.65625 -9.078125 C 2.113281 -9.992188 2.742188 -10.703125 3.546875 -11.203125 C 4.359375 -11.703125 5.28125 -11.953125 6.3125 -11.953125 C 7.914062 -11.953125 9.207031 -11.398438 10.1875 -10.296875 C 11.175781 -9.191406 11.671875 -7.71875 11.671875 -5.875 L 11.671875 -5.734375 C 11.671875 -4.597656 11.453125 -3.570312 11.015625 -2.65625 C 10.578125 -1.75 9.953125 -1.039062 9.140625 -0.53125 C 8.328125 -0.03125 7.390625 0.21875 6.328125 0.21875 C 4.742188 0.21875 3.457031 -0.332031 2.46875 -1.4375 C 1.476562 -2.550781 0.984375 -4.019531 0.984375 -5.84375 Z M 3 -5.734375 C 3 -4.429688 3.300781 -3.382812 3.90625 -2.59375 C 4.507812 -1.8125 5.316406 -1.421875 6.328125 -1.421875 C 7.347656 -1.421875 8.160156 -1.816406 8.765625 -2.609375 C 9.367188 -3.410156 9.671875 -4.535156 9.671875 -5.984375 C 9.671875 -7.265625 9.363281 -8.304688 8.75 -9.109375 C 8.132812 -9.910156 7.320312 -10.3125 6.3125 -10.3125 C 5.320312 -10.3125 4.519531 -9.914062 3.90625 -9.125 C 3.300781 -8.332031 3 -7.203125 3 -5.734375 Z M 3 -5.734375 "/></g></g></g><g fill="#ffffff" fill-opacity="1"><g transform="translate(39.839279, 32.176878)"><g><path d="M 0.984375 -5.984375 C 0.984375 -7.128906 1.207031 -8.160156 1.65625 -9.078125 C 2.113281 -9.992188 2.742188 -10.703125 3.546875 -11.203125 C 4.359375 -11.703125 5.28125 -11.953125 6.3125 -11.953125 C 7.914062 -11.953125 9.207031 -11.398438 10.1875 -10.296875 C 11.175781 -9.191406 11.671875 -7.71875 11.671875 -5.875 L 11.671875 -5.734375 C 11.671875 -4.597656 11.453125 -3.570312 11.015625 -2.65625 C 10.578125 -1.75 9.953125 -1.039062 9.140625 -0.53125 C 8.328125 -0.03125 7.390625 0.21875 6.328125 0.21875 C 4.742188 0.21875 3.457031 -0.332031 2.46875 -1.4375 C 1.476562 -2.550781 0.984375 -4.019531 0.984375 -5.84375 Z M 3 -5.734375 C 3 -4.429688 3.300781 -3.382812 3.90625 -2.59375 C 4.507812 -1.8125 5.316406 -1.421875 6.328125 -1.421875 C 7.347656 -1.421875 8.160156 -1.816406 8.765625 -2.609375 C 9.367188 -3.410156 9.671875 -4.535156 9.671875 -5.984375 C 9.671875 -7.265625 9.363281 -8.304688 8.75 -9.109375 C 8.132812 -9.910156 7.320312 -10.3125 6.3125 -10.3125 C 5.320312 -10.3125 4.519531 -9.914062 3.90625 -9.125 C 3.300781 -8.332031 3 -7.203125 3 -5.734375 Z M 3 -5.734375 "/></g></g></g><g fill="#ffffff" fill-opacity="1"><g transform="translate(52.514543, 32.176878)"><g><path d="M 4.796875 -5.4375 L 3.53125 -4.125 L 3.53125 0 L 1.53125 0 L 1.53125 -16.671875 L 3.53125 -16.671875 L 3.53125 -6.578125 L 4.609375 -7.875 L 8.265625 -11.734375 L 10.703125 -11.734375 L 6.140625 -6.828125 L 11.234375 0 L 8.890625 0 Z M 4.796875 -5.4375 "/></g></g></g><g fill="#ffffff" fill-opacity="1"><g transform="translate(63.779033, 32.176878)"><g><path d="M 11.453125 -5.734375 C 11.453125 -3.941406 11.039062 -2.5 10.21875 -1.40625 C 9.394531 -0.320312 8.289062 0.21875 6.90625 0.21875 C 5.414062 0.21875 4.265625 -0.304688 3.453125 -1.359375 L 3.359375 0 L 1.515625 0 L 1.515625 -16.671875 L 3.53125 -16.671875 L 3.53125 -10.453125 C 4.332031 -11.453125 5.445312 -11.953125 6.875 -11.953125 C 8.300781 -11.953125 9.421875 -11.410156 10.234375 -10.328125 C 11.046875 -9.253906 11.453125 -7.78125 11.453125 -5.90625 Z M 9.453125 -5.96875 C 9.453125 -7.332031 9.1875 -8.382812 8.65625 -9.125 C 8.125 -9.875 7.363281 -10.25 6.375 -10.25 C 5.050781 -10.25 4.101562 -9.632812 3.53125 -8.40625 L 3.53125 -3.328125 C 4.144531 -2.097656 5.101562 -1.484375 6.40625 -1.484375 C 7.363281 -1.484375 8.109375 -1.851562 8.640625 -2.59375 C 9.179688 -3.34375 9.453125 -4.46875 9.453125 -5.96875 Z M 9.453125 -5.96875 "/></g></g></g><g fill="#ffffff" fill-opacity="1"><g transform="translate(76.248106, 32.176878)"><g><path d="M 8.765625 -1.15625 C 7.984375 -0.238281 6.835938 0.21875 5.328125 0.21875 C 4.078125 0.21875 3.125 -0.144531 2.46875 -0.875 C 1.8125 -1.601562 1.476562 -2.675781 1.46875 -4.09375 L 1.46875 -11.734375 L 3.484375 -11.734375 L 3.484375 -4.15625 C 3.484375 -2.375 4.207031 -1.484375 5.65625 -1.484375 C 7.1875 -1.484375 8.207031 -2.054688 8.71875 -3.203125 L 8.71875 -11.734375 L 10.71875 -11.734375 L 10.71875 0 L 8.8125 0 Z M 8.765625 -1.15625 "/></g></g></g><g fill="#ffffff" fill-opacity="1"><g transform="translate(88.500138, 32.176878)"><g><path d="M 8.359375 -3.109375 C 8.359375 -3.648438 8.148438 -4.070312 7.734375 -4.375 C 7.328125 -4.675781 6.613281 -4.9375 5.59375 -5.15625 C 4.582031 -5.375 3.78125 -5.632812 3.1875 -5.9375 C 2.59375 -6.238281 2.148438 -6.597656 1.859375 -7.015625 C 1.578125 -7.441406 1.4375 -7.941406 1.4375 -8.515625 C 1.4375 -9.472656 1.84375 -10.285156 2.65625 -10.953125 C 3.46875 -11.617188 4.503906 -11.953125 5.765625 -11.953125 C 7.097656 -11.953125 8.175781 -11.609375 9 -10.921875 C 9.832031 -10.234375 10.25 -9.351562 10.25 -8.28125 L 8.234375 -8.28125 C 8.234375 -8.832031 8 -9.304688 7.53125 -9.703125 C 7.0625 -10.109375 6.472656 -10.3125 5.765625 -10.3125 C 5.035156 -10.3125 4.460938 -10.148438 4.046875 -9.828125 C 3.640625 -9.515625 3.4375 -9.097656 3.4375 -8.578125 C 3.4375 -8.097656 3.628906 -7.734375 4.015625 -7.484375 C 4.398438 -7.234375 5.09375 -6.992188 6.09375 -6.765625 C 7.09375 -6.546875 7.898438 -6.28125 8.515625 -5.96875 C 9.140625 -5.664062 9.601562 -5.296875 9.90625 -4.859375 C 10.207031 -4.421875 10.359375 -3.882812 10.359375 -3.25 C 10.359375 -2.207031 9.9375 -1.367188 9.09375 -0.734375 C 8.257812 -0.0976562 7.175781 0.21875 5.84375 0.21875 C 4.894531 0.21875 4.054688 0.0507812 3.328125 -0.28125 C 2.609375 -0.613281 2.046875 -1.078125 1.640625 -1.671875 C 1.234375 -2.273438 1.03125 -2.921875 1.03125 -3.609375 L 3.03125 -3.609375 C 3.070312 -2.941406 3.34375 -2.410156 3.84375 -2.015625 C 4.34375 -1.617188 5.007812 -1.421875 5.84375 -1.421875 C 6.59375 -1.421875 7.195312 -1.570312 7.65625 -1.875 C 8.125 -2.1875 8.359375 -2.597656 8.359375 -3.109375 Z M 8.359375 -3.109375 "/></g></g></g><g fill="#ffffff" fill-opacity="1"><g transform="translate(99.959965, 32.176878)"><g><path d="M 4.234375 -14.578125 L 4.234375 -11.734375 L 6.4375 -11.734375 L 6.4375 -10.1875 L 4.234375 -10.1875 L 4.234375 -2.90625 C 4.234375 -2.4375 4.332031 -2.082031 4.53125 -1.84375 C 4.726562 -1.613281 5.0625 -1.5 5.53125 -1.5 C 5.757812 -1.5 6.078125 -1.539062 6.484375 -1.625 L 6.484375 0 C 5.960938 0.144531 5.453125 0.21875 4.953125 0.21875 C 4.054688 0.21875 3.378906 -0.0507812 2.921875 -0.59375 C 2.460938 -1.132812 2.234375 -1.90625 2.234375 -2.90625 L 2.234375 -10.1875 L 0.09375 -10.1875 L 0.09375 -11.734375 L 2.234375 -11.734375 L 2.234375 -14.578125 Z M 4.234375 -14.578125 "/></g></g></g><g fill="#ffffff" fill-opacity="1"><g transform="translate(107.220027, 32.176878)"><g><path d="M 6.390625 0.21875 C 4.796875 0.21875 3.5 -0.300781 2.5 -1.34375 C 1.507812 -2.394531 1.015625 -3.796875 1.015625 -5.546875 L 1.015625 -5.90625 C 1.015625 -7.070312 1.234375 -8.113281 1.671875 -9.03125 C 2.117188 -9.945312 2.738281 -10.660156 3.53125 -11.171875 C 4.332031 -11.691406 5.203125 -11.953125 6.140625 -11.953125 C 7.660156 -11.953125 8.84375 -11.445312 9.6875 -10.4375 C 10.539062 -9.4375 10.96875 -8 10.96875 -6.125 L 10.96875 -5.296875 L 3.015625 -5.296875 C 3.046875 -4.140625 3.382812 -3.203125 4.03125 -2.484375 C 4.675781 -1.773438 5.5 -1.421875 6.5 -1.421875 C 7.207031 -1.421875 7.804688 -1.566406 8.296875 -1.859375 C 8.785156 -2.148438 9.21875 -2.53125 9.59375 -3 L 10.8125 -2.046875 C 9.832031 -0.535156 8.359375 0.21875 6.390625 0.21875 Z M 6.140625 -10.3125 C 5.328125 -10.3125 4.644531 -10.015625 4.09375 -9.421875 C 3.550781 -8.828125 3.210938 -8 3.078125 -6.9375 L 8.96875 -6.9375 L 8.96875 -7.09375 C 8.90625 -8.113281 8.628906 -8.90625 8.140625 -9.46875 C 7.648438 -10.03125 6.984375 -10.3125 6.140625 -10.3125 Z M 6.140625 -10.3125 "/></g></g></g><g fill="#ffffff" fill-opacity="1"><g transform="translate(118.994571, 32.176878)"><g><path d="M 7.1875 -9.9375 C 6.882812 -9.988281 6.554688 -10.015625 6.203125 -10.015625 C 4.890625 -10.015625 4 -9.453125 3.53125 -8.328125 L 3.53125 0 L 1.515625 0 L 1.515625 -11.734375 L 3.46875 -11.734375 L 3.5 -10.375 C 4.15625 -11.425781 5.085938 -11.953125 6.296875 -11.953125 C 6.691406 -11.953125 6.988281 -11.898438 7.1875 -11.796875 Z M 7.1875 -9.9375 "/></g></g></g><path fill="#ffffff" d="M 169.429688 28.648438 C 170.128906 28.648438 170.769531 28.070312 170.769531 27.304688 C 170.769531 26.539062 170.195312 25.960938 169.429688 25.960938 C 168.726562 25.960938 168.089844 26.539062 168.089844 27.304688 C 168.089844 28.070312 168.664062 28.648438 169.429688 28.648438 Z M 169.429688 26.921875 C 169.621094 26.921875 169.8125 27.113281 169.8125 27.304688 C 169.8125 27.496094 169.621094 27.6875 169.429688 27.6875 C 169.238281 27.6875 169.046875 27.496094 169.046875 27.304688 C 169.046875 27.113281 169.238281 26.921875 169.429688 26.921875 Z M 169.429688 26.921875 " fill-opacity="1" fill-rule="nonzero"/><path fill="#ffffff" d="M 150.820312 6.914062 L 156.300781 6.914062 L 156.300781 7.871094 L 150.820312 7.871094 Z M 150.820312 6.914062 " fill-opacity="1" fill-rule="nonzero"/><path fill="#ffffff" d="M 150.820312 9.664062 L 156.300781 9.664062 L 156.300781 10.621094 L 150.820312 10.621094 Z M 150.820312 9.664062 " fill-opacity="1" fill-rule="nonzero"/><path fill="#ffffff" d="M 150.820312 12.410156 L 156.300781 12.410156 L 156.300781 13.371094 L 150.820312 13.371094 Z M 150.820312 12.410156 " fill-opacity="1" fill-rule="nonzero"/><path fill="#ffffff" d="M 151.96875 15.160156 L 155.28125 15.160156 L 155.28125 16.117188 L 151.96875 16.117188 Z M 151.96875 15.160156 " fill-opacity="1" fill-rule="nonzero"/><path fill="#ffffff" d="M 141.773438 6.914062 L 147.253906 6.914062 L 147.253906 7.871094 L 141.773438 7.871094 Z M 141.773438 6.914062 " fill-opacity="1" fill-rule="nonzero"/><path fill="#ffffff" d="M 141.773438 9.664062 L 147.253906 9.664062 L 147.253906 10.621094 L 141.773438 10.621094 Z M 141.773438 9.664062 " fill-opacity="1" fill-rule="nonzero"/><path fill="#ffffff" d="M 141.773438 12.410156 L 147.253906 12.410156 L 147.253906 13.371094 L 141.773438 13.371094 Z M 141.773438 12.410156 " fill-opacity="1" fill-rule="nonzero"/><path fill="#ffffff" d="M 142.855469 15.160156 L 146.167969 15.160156 L 146.167969 16.117188 L 142.855469 16.117188 Z M 142.855469 15.160156 " fill-opacity="1" fill-rule="nonzero"/><g clip-path="url(#4e4747f259)"><path fill="#ffffff" d="M 173.761719 10.429688 L 160.570312 10.429688 L 160.570312 5.828125 L 158.597656 5.828125 L 158.597656 4.550781 L 139.476562 4.550781 L 139.476562 5.828125 L 137.503906 5.828125 L 137.503906 10.429688 L 135.527344 10.429688 C 134.570312 10.429688 133.808594 11.195312 133.808594 12.15625 L 133.808594 38.617188 C 133.808594 39.578125 134.570312 40.34375 135.527344 40.34375 L 149.355469 40.34375 L 146.933594 43.988281 L 144.386719 43.988281 L 144.386719 44.945312 L 164.90625 44.945312 L 164.90625 43.988281 L 162.355469 43.988281 L 159.933594 40.410156 L 173.761719 40.410156 C 174.71875 40.410156 175.484375 39.640625 175.484375 38.683594 L 175.484375 12.15625 C 175.484375 11.195312 174.71875 10.429688 173.761719 10.429688 Z M 149.546875 5.507812 L 157.703125 5.507812 L 157.703125 17.714844 L 149.546875 17.714844 Z M 140.433594 5.507812 L 148.589844 5.507812 L 148.589844 17.714844 L 140.433594 17.714844 Z M 138.457031 6.785156 L 139.476562 6.785156 L 139.476562 18.675781 L 158.660156 18.675781 L 158.660156 6.785156 L 159.679688 6.785156 L 159.679688 19.761719 L 138.457031 19.761719 Z M 135.527344 11.386719 L 137.503906 11.386719 L 137.503906 20.722656 L 148.589844 20.722656 L 148.589844 23.851562 C 148.589844 28.007812 151.96875 31.332031 156.046875 31.332031 C 160.1875 31.332031 163.503906 27.945312 163.503906 23.851562 L 163.503906 21.039062 C 163.503906 19.570312 164.714844 18.355469 166.179688 18.355469 C 167.644531 18.355469 168.855469 19.570312 168.855469 21.039062 L 168.855469 24.238281 C 167.070312 24.492188 165.667969 26.027344 165.667969 27.878906 L 165.667969 30.691406 C 165.667969 32.738281 167.328125 34.398438 169.367188 34.398438 C 171.40625 34.398438 173.0625 32.738281 173.0625 30.691406 L 173.0625 27.878906 C 173.0625 26.027344 171.660156 24.429688 169.875 24.238281 L 169.875 21.039062 C 169.875 18.996094 168.21875 17.398438 166.242188 17.398438 C 164.269531 17.398438 162.609375 18.996094 162.609375 21.039062 L 162.609375 23.851562 C 162.609375 27.433594 159.679688 30.375 156.109375 30.375 C 152.542969 30.375 149.609375 27.433594 149.609375 23.851562 L 149.609375 20.722656 L 160.699219 20.722656 L 160.699219 11.386719 L 173.828125 11.386719 C 174.273438 11.386719 174.589844 11.773438 174.589844 12.15625 L 174.589844 35.804688 L 134.761719 35.804688 L 134.761719 12.15625 C 134.761719 11.773438 135.082031 11.386719 135.527344 11.386719 Z M 169.429688 25.132812 C 170.957031 25.132812 172.167969 26.347656 172.167969 27.878906 L 172.167969 30.691406 C 172.167969 32.226562 170.957031 33.441406 169.429688 33.441406 C 167.898438 33.441406 166.6875 32.226562 166.6875 30.691406 L 166.6875 27.878906 C 166.6875 26.347656 167.898438 25.132812 169.429688 25.132812 Z M 161.207031 43.988281 L 148.082031 43.988281 L 150.503906 40.410156 L 158.789062 40.410156 Z M 173.761719 39.449219 L 135.527344 39.449219 C 135.082031 39.449219 134.761719 39.066406 134.761719 38.683594 L 134.761719 36.828125 L 174.527344 36.828125 L 174.527344 38.683594 C 174.527344 39.066406 174.207031 39.449219 173.761719 39.449219 Z M 173.761719 39.449219 " fill-opacity="1" fill-rule="nonzero"/></g></svg>