<svg xmlns="http://www.w3.org/2000/svg" xmlns:xlink="http://www.w3.org/1999/xlink" width="328" zoomAndPan="magnify" viewBox="0 0 246 211.499994" height="282" preserveAspectRatio="xMidYMid meet" version="1.0"><defs><clipPath id="5589d353a2"><path d="M 0.304688 0.710938 L 245.707031 0.710938 L 245.707031 210.214844 L 0.304688 210.214844 Z M 0.304688 0.710938 " clip-rule="nonzero"/></clipPath><clipPath id="5c93724863"><path d="M 30.234375 15.503906 L 215.796875 15.503906 L 215.796875 195 L 30.234375 195 Z M 30.234375 15.503906 " clip-rule="nonzero"/></clipPath></defs><g clip-path="url(#5589d353a2)"><path stroke-linecap="butt" transform="matrix(0.748338, 0, 0, 0.747981, 0.305643, 0.71142)" fill="none" stroke-linejoin="miter" d="M -0.0012766 -0.000645073 L 327.954636 -0.000645073 L 327.954636 280.092017 L -0.0012766 280.092017 Z M -0.0012766 -0.000645073 " stroke="#ffffff" stroke-width="10" stroke-opacity="1" stroke-miterlimit="4"/></g><path fill="#ffffff" d="M 188.839844 122.570312 C 191.960938 122.570312 194.800781 120.023438 194.800781 116.621094 C 194.800781 113.222656 192.246094 110.671875 188.839844 110.671875 C 185.71875 110.671875 182.882812 113.222656 182.882812 116.621094 C 182.882812 120.023438 185.4375 122.570312 188.839844 122.570312 Z M 188.839844 114.921875 C 189.691406 114.921875 190.542969 115.773438 190.542969 116.621094 C 190.542969 117.472656 189.691406 118.324219 188.839844 118.324219 C 187.992188 118.324219 187.140625 117.472656 187.140625 116.621094 C 187.140625 115.773438 187.992188 114.921875 188.839844 114.921875 Z M 188.839844 114.921875 " fill-opacity="1" fill-rule="nonzero"/><path fill="#ffffff" d="M 105.992188 26.253906 L 130.390625 26.253906 L 130.390625 30.503906 L 105.992188 30.503906 Z M 105.992188 26.253906 " fill-opacity="1" fill-rule="nonzero"/><path fill="#ffffff" d="M 105.992188 38.433594 L 130.390625 38.433594 L 130.390625 42.683594 L 105.992188 42.683594 Z M 105.992188 38.433594 " fill-opacity="1" fill-rule="nonzero"/><path fill="#ffffff" d="M 105.992188 50.617188 L 130.390625 50.617188 L 130.390625 54.867188 L 105.992188 54.867188 Z M 105.992188 50.617188 " fill-opacity="1" fill-rule="nonzero"/><path fill="#ffffff" d="M 111.097656 62.796875 L 125.851562 62.796875 L 125.851562 67.046875 L 111.097656 67.046875 Z M 111.097656 62.796875 " fill-opacity="1" fill-rule="nonzero"/><path fill="#ffffff" d="M 65.703125 26.253906 L 90.101562 26.253906 L 90.101562 30.503906 L 65.703125 30.503906 Z M 65.703125 26.253906 " fill-opacity="1" fill-rule="nonzero"/><path fill="#ffffff" d="M 65.703125 38.433594 L 90.101562 38.433594 L 90.101562 42.683594 L 65.703125 42.683594 Z M 65.703125 38.433594 " fill-opacity="1" fill-rule="nonzero"/><path fill="#ffffff" d="M 65.703125 50.617188 L 90.101562 50.617188 L 90.101562 54.867188 L 65.703125 54.867188 Z M 65.703125 50.617188 " fill-opacity="1" fill-rule="nonzero"/><path fill="#ffffff" d="M 70.523438 62.796875 L 85.277344 62.796875 L 85.277344 67.046875 L 70.523438 67.046875 Z M 70.523438 62.796875 " fill-opacity="1" fill-rule="nonzero"/><g clip-path="url(#5c93724863)"><path fill="#ffffff" d="M 208.136719 41.832031 L 149.402344 41.832031 L 149.402344 21.4375 L 140.605469 21.4375 L 140.605469 15.769531 L 55.488281 15.769531 L 55.488281 21.4375 L 46.691406 21.4375 L 46.691406 41.832031 L 37.894531 41.832031 C 33.640625 41.832031 30.234375 45.234375 30.234375 49.484375 L 30.234375 166.765625 C 30.234375 171.015625 33.640625 174.414062 37.894531 174.414062 L 99.464844 174.414062 L 88.683594 190.5625 L 77.335938 190.5625 L 77.335938 194.8125 L 168.695312 194.8125 L 168.695312 190.5625 L 157.347656 190.5625 L 146.566406 174.699219 L 208.136719 174.699219 C 212.390625 174.699219 215.796875 171.296875 215.796875 167.050781 L 215.796875 49.484375 C 215.796875 45.234375 212.390625 41.832031 208.136719 41.832031 Z M 100.316406 20.019531 L 136.632812 20.019531 L 136.632812 74.128906 L 100.316406 74.128906 Z M 59.742188 20.019531 L 96.0625 20.019531 L 96.0625 74.128906 L 59.742188 74.128906 Z M 50.949219 25.6875 L 55.488281 25.6875 L 55.488281 78.378906 L 140.890625 78.378906 L 140.890625 25.6875 L 145.429688 25.6875 L 145.429688 83.195312 L 50.949219 83.195312 Z M 37.894531 46.082031 L 46.691406 46.082031 L 46.691406 87.445312 L 96.0625 87.445312 L 96.0625 101.324219 C 96.0625 119.738281 111.097656 134.46875 129.257812 134.46875 C 147.699219 134.46875 162.453125 119.457031 162.453125 101.324219 L 162.453125 88.859375 C 162.453125 82.34375 167.84375 76.960938 174.371094 76.960938 C 180.898438 76.960938 186.289062 82.34375 186.289062 88.859375 L 186.289062 103.023438 C 178.34375 104.15625 172.101562 110.957031 172.101562 119.171875 L 172.101562 131.636719 C 172.101562 140.703125 179.476562 148.066406 188.558594 148.066406 C 197.636719 148.066406 205.015625 140.703125 205.015625 131.636719 L 205.015625 119.171875 C 205.015625 110.957031 198.773438 103.875 190.828125 103.023438 L 190.828125 88.859375 C 190.828125 79.796875 183.449219 72.710938 174.65625 72.710938 C 165.859375 72.710938 158.480469 79.796875 158.480469 88.859375 L 158.480469 101.324219 C 158.480469 117.191406 145.429688 130.222656 129.542969 130.222656 C 113.652344 130.222656 100.601562 117.191406 100.601562 101.324219 L 100.601562 87.445312 L 149.96875 87.445312 L 149.96875 46.082031 L 208.417969 46.082031 C 210.40625 46.082031 211.824219 47.78125 211.824219 49.484375 L 211.824219 154.300781 L 34.492188 154.300781 L 34.492188 49.484375 C 34.492188 47.78125 35.910156 46.082031 37.894531 46.082031 Z M 188.839844 106.992188 C 195.652344 106.992188 201.042969 112.375 201.042969 119.171875 L 201.042969 131.636719 C 201.042969 138.4375 195.652344 143.820312 188.839844 143.820312 C 182.03125 143.820312 176.640625 138.4375 176.640625 131.636719 L 176.640625 119.171875 C 176.640625 112.375 182.03125 106.992188 188.839844 106.992188 Z M 152.238281 190.5625 L 93.792969 190.5625 L 104.574219 174.699219 L 141.457031 174.699219 Z M 208.136719 170.449219 L 37.894531 170.449219 C 35.910156 170.449219 34.492188 168.75 34.492188 167.050781 L 34.492188 158.832031 L 211.539062 158.832031 L 211.539062 167.050781 C 211.539062 168.75 210.121094 170.449219 208.136719 170.449219 Z M 208.136719 170.449219 " fill-opacity="1" fill-rule="nonzero"/></g></svg>