<svg xmlns="http://www.w3.org/2000/svg" xmlns:xlink="http://www.w3.org/1999/xlink" width="995" zoomAndPan="magnify" viewBox="0 0 746.25 211.499994" height="282" preserveAspectRatio="xMidYMid meet" version="1.0"><defs><g/><clipPath id="6a60136eb7"><path d="M 11.75 0.714844 L 744.996094 0.714844 L 744.996094 210.21875 L 11.75 210.21875 Z M 11.75 0.714844 " clip-rule="nonzero"/></clipPath><clipPath id="385e319e1d"><path d="M 529.519531 15.507812 L 715.082031 15.507812 L 715.082031 195 L 529.519531 195 Z M 529.519531 15.507812 " clip-rule="nonzero"/></clipPath></defs><g clip-path="url(#6a60136eb7)"><path stroke-linecap="butt" transform="matrix(0.748267, 0, 0, 0.747981, 11.748969, 0.715537)" fill="none" stroke-linejoin="miter" d="M 0.00137755 -0.000926312 L 979.943005 -0.000926312 L 979.943005 280.091735 L 0.00137755 280.091735 Z M 0.00137755 -0.000926312 " stroke="#ffffff" stroke-width="10" stroke-opacity="1" stroke-miterlimit="4"/></g><g fill="#ffffff" fill-opacity="1"><g transform="translate(34.956037, 136.470013)"><g><path d="M 7.578125 0 L 7.578125 -65.25 L 28.90625 -65.25 C 35.988281 -65.25 41.3125 -63.785156 44.875 -60.859375 C 48.445312 -57.929688 50.234375 -53.597656 50.234375 -47.859375 C 50.234375 -44.816406 49.367188 -42.117188 47.640625 -39.765625 C 45.910156 -37.421875 43.550781 -35.609375 40.5625 -34.328125 C 44.082031 -33.335938 46.863281 -31.460938 48.90625 -28.703125 C 50.957031 -25.941406 51.984375 -22.648438 51.984375 -18.828125 C 51.984375 -12.960938 50.085938 -8.359375 46.296875 -5.015625 C 42.503906 -1.671875 37.140625 0 30.203125 0 Z M 16.171875 -30.515625 L 16.171875 -7.03125 L 30.390625 -7.03125 C 34.390625 -7.03125 37.546875 -8.066406 39.859375 -10.140625 C 42.179688 -12.222656 43.34375 -15.085938 43.34375 -18.734375 C 43.34375 -26.585938 39.066406 -30.515625 30.515625 -30.515625 Z M 16.171875 -37.421875 L 29.171875 -37.421875 C 32.941406 -37.421875 35.953125 -38.359375 38.203125 -40.234375 C 40.460938 -42.117188 41.59375 -44.675781 41.59375 -47.90625 C 41.59375 -51.488281 40.546875 -54.09375 38.453125 -55.71875 C 36.359375 -57.351562 33.175781 -58.171875 28.90625 -58.171875 L 16.171875 -58.171875 Z M 16.171875 -37.421875 "/></g></g></g><g fill="#ffffff" fill-opacity="1"><g transform="translate(92.091488, 136.470013)"><g><path d="M 4.078125 -24.6875 C 4.078125 -29.4375 5.007812 -33.707031 6.875 -37.5 C 8.75 -41.300781 11.347656 -44.234375 14.671875 -46.296875 C 18.003906 -48.359375 21.804688 -49.390625 26.078125 -49.390625 C 32.679688 -49.390625 38.019531 -47.101562 42.09375 -42.53125 C 46.175781 -37.957031 48.21875 -31.878906 48.21875 -24.296875 L 48.21875 -23.703125 C 48.21875 -18.984375 47.3125 -14.75 45.5 -11 C 43.695312 -7.25 41.113281 -4.328125 37.75 -2.234375 C 34.394531 -0.148438 30.535156 0.890625 26.171875 0.890625 C 19.597656 0.890625 14.269531 -1.390625 10.1875 -5.953125 C 6.113281 -10.523438 4.078125 -16.578125 4.078125 -24.109375 Z M 12.40625 -23.703125 C 12.40625 -18.328125 13.648438 -14.007812 16.140625 -10.75 C 18.640625 -7.5 21.984375 -5.875 26.171875 -5.875 C 30.378906 -5.875 33.722656 -7.523438 36.203125 -10.828125 C 38.691406 -14.128906 39.9375 -18.75 39.9375 -24.6875 C 39.9375 -30.007812 38.671875 -34.320312 36.140625 -37.625 C 33.617188 -40.925781 30.265625 -42.578125 26.078125 -42.578125 C 21.984375 -42.578125 18.679688 -40.945312 16.171875 -37.6875 C 13.660156 -34.425781 12.40625 -29.765625 12.40625 -23.703125 Z M 12.40625 -23.703125 "/></g></g></g><g fill="#ffffff" fill-opacity="1"><g transform="translate(144.432043, 136.470013)"><g><path d="M 4.078125 -24.6875 C 4.078125 -29.4375 5.007812 -33.707031 6.875 -37.5 C 8.75 -41.300781 11.347656 -44.234375 14.671875 -46.296875 C 18.003906 -48.359375 21.804688 -49.390625 26.078125 -49.390625 C 32.679688 -49.390625 38.019531 -47.101562 42.09375 -42.53125 C 46.175781 -37.957031 48.21875 -31.878906 48.21875 -24.296875 L 48.21875 -23.703125 C 48.21875 -18.984375 47.3125 -14.75 45.5 -11 C 43.695312 -7.25 41.113281 -4.328125 37.75 -2.234375 C 34.394531 -0.148438 30.535156 0.890625 26.171875 0.890625 C 19.597656 0.890625 14.269531 -1.390625 10.1875 -5.953125 C 6.113281 -10.523438 4.078125 -16.578125 4.078125 -24.109375 Z M 12.40625 -23.703125 C 12.40625 -18.328125 13.648438 -14.007812 16.140625 -10.75 C 18.640625 -7.5 21.984375 -5.875 26.171875 -5.875 C 30.378906 -5.875 33.722656 -7.523438 36.203125 -10.828125 C 38.691406 -14.128906 39.9375 -18.75 39.9375 -24.6875 C 39.9375 -30.007812 38.671875 -34.320312 36.140625 -37.625 C 33.617188 -40.925781 30.265625 -42.578125 26.078125 -42.578125 C 21.984375 -42.578125 18.679688 -40.945312 16.171875 -37.6875 C 13.660156 -34.425781 12.40625 -29.765625 12.40625 -23.703125 Z M 12.40625 -23.703125 "/></g></g></g><g fill="#ffffff" fill-opacity="1"><g transform="translate(196.772597, 136.470013)"><g><path d="M 19.8125 -22.453125 L 14.609375 -17.03125 L 14.609375 0 L 6.3125 0 L 6.3125 -68.84375 L 14.609375 -68.84375 L 14.609375 -27.203125 L 19.046875 -32.53125 L 34.15625 -48.484375 L 44.234375 -48.484375 L 25.359375 -28.234375 L 46.421875 0 L 36.703125 0 Z M 19.8125 -22.453125 "/></g></g></g><g fill="#ffffff" fill-opacity="1"><g transform="translate(243.287564, 136.470013)"><g><path d="M 47.328125 -23.703125 C 47.328125 -16.296875 45.625 -10.34375 42.21875 -5.84375 C 38.8125 -1.351562 34.238281 0.890625 28.5 0.890625 C 22.375 0.890625 17.640625 -1.273438 14.296875 -5.609375 L 13.890625 0 L 6.28125 0 L 6.28125 -68.84375 L 14.5625 -68.84375 L 14.5625 -43.15625 C 17.90625 -47.3125 22.519531 -49.390625 28.40625 -49.390625 C 34.289062 -49.390625 38.914062 -47.160156 42.28125 -42.703125 C 45.644531 -38.253906 47.328125 -32.160156 47.328125 -24.421875 Z M 39.03125 -24.640625 C 39.03125 -30.296875 37.9375 -34.660156 35.75 -37.734375 C 33.570312 -40.804688 30.4375 -42.34375 26.34375 -42.34375 C 20.882812 -42.34375 16.957031 -39.804688 14.5625 -34.734375 L 14.5625 -13.765625 C 17.101562 -8.679688 21.0625 -6.140625 26.4375 -6.140625 C 30.414062 -6.140625 33.507812 -7.675781 35.71875 -10.75 C 37.925781 -13.832031 39.03125 -18.460938 39.03125 -24.640625 Z M 39.03125 -24.640625 "/></g></g></g><g fill="#ffffff" fill-opacity="1"><g transform="translate(294.776677, 136.470013)"><g><path d="M 36.203125 -4.796875 C 32.984375 -1.003906 28.25 0.890625 22 0.890625 C 16.832031 0.890625 12.894531 -0.609375 10.1875 -3.609375 C 7.488281 -6.609375 6.125 -11.050781 6.09375 -16.9375 L 6.09375 -48.484375 L 14.390625 -48.484375 L 14.390625 -17.171875 C 14.390625 -9.816406 17.375 -6.140625 23.34375 -6.140625 C 29.675781 -6.140625 33.890625 -8.5 35.984375 -13.21875 L 35.984375 -48.484375 L 44.28125 -48.484375 L 44.28125 0 L 36.390625 0 Z M 36.203125 -4.796875 "/></g></g></g><g fill="#ffffff" fill-opacity="1"><g transform="translate(345.369547, 136.470013)"><g><path d="M 34.5 -12.859375 C 34.5 -15.097656 33.65625 -16.835938 31.96875 -18.078125 C 30.28125 -19.316406 27.335938 -20.382812 23.140625 -21.28125 C 18.941406 -22.175781 15.609375 -23.25 13.140625 -24.5 C 10.679688 -25.757812 8.863281 -27.253906 7.6875 -28.984375 C 6.507812 -30.722656 5.921875 -32.789062 5.921875 -35.1875 C 5.921875 -39.15625 7.597656 -42.515625 10.953125 -45.265625 C 14.316406 -48.015625 18.613281 -49.390625 23.84375 -49.390625 C 29.34375 -49.390625 33.800781 -47.96875 37.21875 -45.125 C 40.632812 -42.289062 42.34375 -38.660156 42.34375 -34.234375 L 34.015625 -34.234375 C 34.015625 -36.503906 33.050781 -38.460938 31.125 -40.109375 C 29.195312 -41.753906 26.769531 -42.578125 23.84375 -42.578125 C 20.820312 -42.578125 18.457031 -41.914062 16.75 -40.59375 C 15.050781 -39.28125 14.203125 -37.566406 14.203125 -35.453125 C 14.203125 -33.453125 14.992188 -31.941406 16.578125 -30.921875 C 18.160156 -29.910156 21.019531 -28.941406 25.15625 -28.015625 C 29.300781 -27.085938 32.65625 -25.976562 35.21875 -24.6875 C 37.789062 -23.40625 39.695312 -21.859375 40.9375 -20.046875 C 42.175781 -18.242188 42.796875 -16.039062 42.796875 -13.4375 C 42.796875 -9.113281 41.0625 -5.644531 37.59375 -3.03125 C 34.132812 -0.414062 29.640625 0.890625 24.109375 0.890625 C 20.222656 0.890625 16.785156 0.203125 13.796875 -1.171875 C 10.816406 -2.546875 8.476562 -4.460938 6.78125 -6.921875 C 5.09375 -9.390625 4.25 -12.054688 4.25 -14.921875 L 12.546875 -14.921875 C 12.691406 -12.140625 13.800781 -9.9375 15.875 -8.3125 C 17.957031 -6.6875 20.703125 -5.875 24.109375 -5.875 C 27.242188 -5.875 29.757812 -6.507812 31.65625 -7.78125 C 33.550781 -9.050781 34.5 -10.742188 34.5 -12.859375 Z M 34.5 -12.859375 "/></g></g></g><g fill="#ffffff" fill-opacity="1"><g transform="translate(392.691144, 136.470013)"><g><path d="M 17.515625 -60.234375 L 17.515625 -48.484375 L 26.578125 -48.484375 L 26.578125 -42.078125 L 17.515625 -42.078125 L 17.515625 -12.015625 C 17.515625 -10.066406 17.914062 -8.609375 18.71875 -7.640625 C 19.53125 -6.671875 20.910156 -6.1875 22.859375 -6.1875 C 23.816406 -6.1875 25.128906 -6.363281 26.796875 -6.71875 L 26.796875 0 C 24.617188 0.59375 22.5 0.890625 20.4375 0.890625 C 16.726562 0.890625 13.929688 -0.226562 12.046875 -2.46875 C 10.171875 -4.707031 9.234375 -7.890625 9.234375 -12.015625 L 9.234375 -42.078125 L 0.40625 -42.078125 L 0.40625 -48.484375 L 9.234375 -48.484375 L 9.234375 -60.234375 Z M 17.515625 -60.234375 "/></g></g></g><g fill="#ffffff" fill-opacity="1"><g transform="translate(422.67044, 136.470013)"><g><path d="M 26.390625 0.890625 C 19.816406 0.890625 14.46875 -1.265625 10.34375 -5.578125 C 6.226562 -9.898438 4.171875 -15.675781 4.171875 -22.90625 L 4.171875 -24.421875 C 4.171875 -29.234375 5.085938 -33.53125 6.921875 -37.3125 C 8.765625 -41.09375 11.332031 -44.050781 14.625 -46.1875 C 17.925781 -48.320312 21.503906 -49.390625 25.359375 -49.390625 C 31.671875 -49.390625 36.570312 -47.3125 40.0625 -43.15625 C 43.5625 -39 45.3125 -33.054688 45.3125 -25.328125 L 45.3125 -21.875 L 12.453125 -21.875 C 12.578125 -17.09375 13.972656 -13.226562 16.640625 -10.28125 C 19.316406 -7.34375 22.71875 -5.875 26.84375 -5.875 C 29.769531 -5.875 32.25 -6.46875 34.28125 -7.65625 C 36.3125 -8.851562 38.085938 -10.4375 39.609375 -12.40625 L 44.6875 -8.46875 C 40.613281 -2.226562 34.515625 0.890625 26.390625 0.890625 Z M 25.359375 -42.578125 C 22.015625 -42.578125 19.207031 -41.359375 16.9375 -38.921875 C 14.664062 -36.484375 13.265625 -33.070312 12.734375 -28.6875 L 37.015625 -28.6875 L 37.015625 -29.3125 C 36.773438 -33.519531 35.640625 -36.78125 33.609375 -39.09375 C 31.578125 -41.414062 28.828125 -42.578125 25.359375 -42.578125 Z M 25.359375 -42.578125 "/></g></g></g><g fill="#ffffff" fill-opacity="1"><g transform="translate(471.291577, 136.470013)"><g><path d="M 29.71875 -41.046875 C 28.457031 -41.253906 27.097656 -41.359375 25.640625 -41.359375 C 20.203125 -41.359375 16.507812 -39.046875 14.5625 -34.421875 L 14.5625 0 L 6.28125 0 L 6.28125 -48.484375 L 14.34375 -48.484375 L 14.46875 -42.890625 C 17.1875 -47.222656 21.039062 -49.390625 26.03125 -49.390625 C 27.644531 -49.390625 28.875 -49.179688 29.71875 -48.765625 Z M 29.71875 -41.046875 "/></g></g></g><path fill="#ffffff" d="M 688.128906 122.574219 C 691.25 122.574219 694.085938 120.027344 694.085938 116.628906 C 694.085938 113.226562 691.53125 110.679688 688.128906 110.679688 C 685.007812 110.679688 682.167969 113.226562 682.167969 116.628906 C 682.167969 120.027344 684.722656 122.574219 688.128906 122.574219 Z M 688.128906 114.925781 C 688.980469 114.925781 689.828125 115.777344 689.828125 116.628906 C 689.828125 117.476562 688.980469 118.328125 688.128906 118.328125 C 687.277344 118.328125 686.425781 117.476562 686.425781 116.628906 C 686.425781 115.777344 687.277344 114.925781 688.128906 114.925781 Z M 688.128906 114.925781 " fill-opacity="1" fill-rule="nonzero"/><path fill="#ffffff" d="M 605.277344 26.257812 L 629.679688 26.257812 L 629.679688 30.507812 L 605.277344 30.507812 Z M 605.277344 26.257812 " fill-opacity="1" fill-rule="nonzero"/><path fill="#ffffff" d="M 605.277344 38.4375 L 629.679688 38.4375 L 629.679688 42.6875 L 605.277344 42.6875 Z M 605.277344 38.4375 " fill-opacity="1" fill-rule="nonzero"/><path fill="#ffffff" d="M 605.277344 50.621094 L 629.679688 50.621094 L 629.679688 54.871094 L 605.277344 54.871094 Z M 605.277344 50.621094 " fill-opacity="1" fill-rule="nonzero"/><path fill="#ffffff" d="M 610.382812 62.800781 L 625.140625 62.800781 L 625.140625 67.050781 L 610.382812 67.050781 Z M 610.382812 62.800781 " fill-opacity="1" fill-rule="nonzero"/><path fill="#ffffff" d="M 564.988281 26.257812 L 589.386719 26.257812 L 589.386719 30.507812 L 564.988281 30.507812 Z M 564.988281 26.257812 " fill-opacity="1" fill-rule="nonzero"/><path fill="#ffffff" d="M 564.988281 38.4375 L 589.386719 38.4375 L 589.386719 42.6875 L 564.988281 42.6875 Z M 564.988281 38.4375 " fill-opacity="1" fill-rule="nonzero"/><path fill="#ffffff" d="M 564.988281 50.621094 L 589.386719 50.621094 L 589.386719 54.871094 L 564.988281 54.871094 Z M 564.988281 50.621094 " fill-opacity="1" fill-rule="nonzero"/><path fill="#ffffff" d="M 569.8125 62.800781 L 584.566406 62.800781 L 584.566406 67.050781 L 569.8125 67.050781 Z M 569.8125 62.800781 " fill-opacity="1" fill-rule="nonzero"/><g clip-path="url(#385e319e1d)"><path fill="#ffffff" d="M 707.421875 41.839844 L 648.6875 41.839844 L 648.6875 21.441406 L 639.894531 21.441406 L 639.894531 15.773438 L 554.773438 15.773438 L 554.773438 21.441406 L 545.976562 21.441406 L 545.976562 41.839844 L 537.179688 41.839844 C 532.925781 41.839844 529.519531 45.238281 529.519531 49.488281 L 529.519531 166.769531 C 529.519531 171.019531 532.925781 174.417969 537.179688 174.417969 L 598.75 174.417969 L 587.96875 190.566406 L 576.621094 190.566406 L 576.621094 194.816406 L 667.984375 194.816406 L 667.984375 190.566406 L 656.632812 190.566406 L 645.851562 174.703125 L 707.421875 174.703125 C 711.675781 174.703125 715.082031 171.300781 715.082031 167.054688 L 715.082031 49.488281 C 715.082031 45.238281 711.675781 41.839844 707.421875 41.839844 Z M 599.601562 20.023438 L 635.921875 20.023438 L 635.921875 74.132812 L 599.601562 74.132812 Z M 559.027344 20.023438 L 595.347656 20.023438 L 595.347656 74.132812 L 559.027344 74.132812 Z M 550.234375 25.691406 L 554.773438 25.691406 L 554.773438 78.382812 L 640.175781 78.382812 L 640.175781 25.691406 L 644.714844 25.691406 L 644.714844 83.199219 L 550.234375 83.199219 Z M 537.179688 46.085938 L 545.976562 46.085938 L 545.976562 87.449219 L 595.347656 87.449219 L 595.347656 101.328125 C 595.347656 119.742188 610.382812 134.472656 628.542969 134.472656 C 646.984375 134.472656 661.742188 119.460938 661.742188 101.328125 L 661.742188 88.863281 C 661.742188 82.347656 667.132812 76.964844 673.65625 76.964844 C 680.183594 76.964844 685.574219 82.347656 685.574219 88.863281 L 685.574219 103.027344 C 677.628906 104.164062 671.386719 110.960938 671.386719 119.175781 L 671.386719 131.640625 C 671.386719 140.707031 678.765625 148.074219 687.84375 148.074219 C 696.921875 148.074219 704.300781 140.707031 704.300781 131.640625 L 704.300781 119.175781 C 704.300781 110.960938 698.058594 103.878906 690.113281 103.027344 L 690.113281 88.863281 C 690.113281 79.800781 682.738281 72.714844 673.941406 72.714844 C 665.144531 72.714844 657.769531 79.800781 657.769531 88.863281 L 657.769531 101.328125 C 657.769531 117.195312 644.714844 130.226562 628.828125 130.226562 C 612.9375 130.226562 599.886719 117.195312 599.886719 101.328125 L 599.886719 87.449219 L 649.257812 87.449219 L 649.257812 46.085938 L 707.703125 46.085938 C 709.691406 46.085938 711.109375 47.785156 711.109375 49.488281 L 711.109375 154.304688 L 533.777344 154.304688 L 533.777344 49.488281 C 533.777344 47.785156 535.195312 46.085938 537.179688 46.085938 Z M 688.128906 106.996094 C 694.9375 106.996094 700.328125 112.378906 700.328125 119.175781 L 700.328125 131.640625 C 700.328125 138.441406 694.9375 143.824219 688.128906 143.824219 C 681.316406 143.824219 675.925781 138.441406 675.925781 131.640625 L 675.925781 119.175781 C 675.925781 112.378906 681.316406 106.996094 688.128906 106.996094 Z M 651.527344 190.566406 L 593.078125 190.566406 L 603.859375 174.703125 L 640.742188 174.703125 Z M 707.421875 170.453125 L 537.179688 170.453125 C 535.195312 170.453125 533.777344 168.753906 533.777344 167.054688 L 533.777344 158.835938 L 710.824219 158.835938 L 710.824219 167.054688 C 710.824219 168.753906 709.40625 170.453125 707.421875 170.453125 Z M 707.421875 170.453125 " fill-opacity="1" fill-rule="nonzero"/></g></svg>