<svg xmlns="http://www.w3.org/2000/svg" xmlns:xlink="http://www.w3.org/1999/xlink" width="76" zoomAndPan="magnify" viewBox="0 0 56.879997 49.499998" height="66" preserveAspectRatio="xMidYMid meet" version="1.0"><defs><clipPath id="df1576103a"><path d="M 0.25 0.703125 L 56.363281 0.703125 L 56.363281 48.605469 L 0.25 48.605469 Z M 0.25 0.703125 " clip-rule="nonzero"/></clipPath><clipPath id="a2105268ea"><path d="M 7.089844 4.085938 L 49.519531 4.085938 L 49.519531 45.144531 L 7.089844 45.144531 Z M 7.089844 4.085938 " clip-rule="nonzero"/></clipPath></defs><g clip-path="url(#df1576103a)"><path stroke-linecap="butt" transform="matrix(0.171107, 0, 0, 0.171026, 0.24819, 0.701973)" fill="none" stroke-linejoin="miter" d="M 0.010579 0.00673325 L 327.952399 0.00673325 L 327.952399 280.095284 L 0.010579 280.095284 Z M 0.010579 0.00673325 " stroke="#ffffff" stroke-width="17.359995" stroke-opacity="1" stroke-miterlimit="4"/></g><path fill="#ffffff" d="M 43.355469 28.566406 C 44.070312 28.566406 44.71875 27.980469 44.71875 27.207031 C 44.71875 26.429688 44.136719 25.84375 43.355469 25.84375 C 42.644531 25.84375 41.996094 26.429688 41.996094 27.207031 C 41.996094 27.980469 42.578125 28.566406 43.355469 28.566406 Z M 43.355469 26.816406 C 43.550781 26.816406 43.746094 27.011719 43.746094 27.207031 C 43.746094 27.398438 43.550781 27.59375 43.355469 27.59375 C 43.164062 27.59375 42.96875 27.398438 42.96875 27.207031 C 42.96875 27.011719 43.164062 26.816406 43.355469 26.816406 Z M 43.355469 26.816406 " fill-opacity="1" fill-rule="nonzero"/><path fill="#ffffff" d="M 24.414062 6.542969 L 29.992188 6.542969 L 29.992188 7.511719 L 24.414062 7.511719 Z M 24.414062 6.542969 " fill-opacity="1" fill-rule="nonzero"/><path fill="#ffffff" d="M 24.414062 9.328125 L 29.992188 9.328125 L 29.992188 10.300781 L 24.414062 10.300781 Z M 24.414062 9.328125 " fill-opacity="1" fill-rule="nonzero"/><path fill="#ffffff" d="M 24.414062 12.113281 L 29.992188 12.113281 L 29.992188 13.085938 L 24.414062 13.085938 Z M 24.414062 12.113281 " fill-opacity="1" fill-rule="nonzero"/><path fill="#ffffff" d="M 25.582031 14.898438 L 28.953125 14.898438 L 28.953125 15.871094 L 25.582031 15.871094 Z M 25.582031 14.898438 " fill-opacity="1" fill-rule="nonzero"/><path fill="#ffffff" d="M 15.199219 6.542969 L 20.78125 6.542969 L 20.78125 7.511719 L 15.199219 7.511719 Z M 15.199219 6.542969 " fill-opacity="1" fill-rule="nonzero"/><path fill="#ffffff" d="M 15.199219 9.328125 L 20.78125 9.328125 L 20.78125 10.300781 L 15.199219 10.300781 Z M 15.199219 9.328125 " fill-opacity="1" fill-rule="nonzero"/><path fill="#ffffff" d="M 15.199219 12.113281 L 20.78125 12.113281 L 20.78125 13.085938 L 15.199219 13.085938 Z M 15.199219 12.113281 " fill-opacity="1" fill-rule="nonzero"/><path fill="#ffffff" d="M 16.304688 14.898438 L 19.675781 14.898438 L 19.675781 15.871094 L 16.304688 15.871094 Z M 16.304688 14.898438 " fill-opacity="1" fill-rule="nonzero"/><g clip-path="url(#a2105268ea)"><path fill="#ffffff" d="M 47.769531 10.105469 L 34.339844 10.105469 L 34.339844 5.441406 L 32.328125 5.441406 L 32.328125 4.144531 L 12.867188 4.144531 L 12.867188 5.441406 L 10.855469 5.441406 L 10.855469 10.105469 L 8.84375 10.105469 C 7.871094 10.105469 7.089844 10.882812 7.089844 11.855469 L 7.089844 38.671875 C 7.089844 39.640625 7.871094 40.417969 8.84375 40.417969 L 22.921875 40.417969 L 20.457031 44.109375 L 17.859375 44.109375 L 17.859375 45.082031 L 38.75 45.082031 L 38.75 44.109375 L 36.15625 44.109375 L 33.691406 40.484375 L 47.769531 40.484375 C 48.742188 40.484375 49.519531 39.707031 49.519531 38.734375 L 49.519531 11.855469 C 49.519531 10.882812 48.742188 10.105469 47.769531 10.105469 Z M 23.117188 5.117188 L 31.417969 5.117188 L 31.417969 17.488281 L 23.117188 17.488281 Z M 13.839844 5.117188 L 22.144531 5.117188 L 22.144531 17.488281 L 13.839844 17.488281 Z M 11.828125 6.414062 L 12.867188 6.414062 L 12.867188 18.460938 L 32.394531 18.460938 L 32.394531 6.414062 L 33.429688 6.414062 L 33.429688 19.5625 L 11.828125 19.5625 Z M 8.84375 11.078125 L 10.855469 11.078125 L 10.855469 20.535156 L 22.144531 20.535156 L 22.144531 23.707031 C 22.144531 27.917969 25.582031 31.285156 29.734375 31.285156 C 33.949219 31.285156 37.324219 27.851562 37.324219 23.707031 L 37.324219 20.855469 C 37.324219 19.367188 38.554688 18.136719 40.046875 18.136719 C 41.539062 18.136719 42.773438 19.367188 42.773438 20.855469 L 42.773438 24.097656 C 40.957031 24.355469 39.527344 25.910156 39.527344 27.789062 L 39.527344 30.636719 C 39.527344 32.710938 41.214844 34.394531 43.292969 34.394531 C 45.367188 34.394531 47.054688 32.710938 47.054688 30.636719 L 47.054688 27.789062 C 47.054688 25.910156 45.628906 24.289062 43.8125 24.097656 L 43.8125 20.855469 C 43.8125 18.785156 42.125 17.164062 40.113281 17.164062 C 38.101562 17.164062 36.414062 18.785156 36.414062 20.855469 L 36.414062 23.707031 C 36.414062 27.335938 33.429688 30.3125 29.796875 30.3125 C 26.164062 30.3125 23.179688 27.335938 23.179688 23.707031 L 23.179688 20.535156 L 34.46875 20.535156 L 34.46875 11.078125 L 47.832031 11.078125 C 48.289062 11.078125 48.613281 11.464844 48.613281 11.855469 L 48.613281 35.820312 L 8.066406 35.820312 L 8.066406 11.855469 C 8.066406 11.464844 8.390625 11.078125 8.84375 11.078125 Z M 43.355469 25.003906 C 44.914062 25.003906 46.148438 26.234375 46.148438 27.789062 L 46.148438 30.636719 C 46.148438 32.191406 44.914062 33.421875 43.355469 33.421875 C 41.800781 33.421875 40.566406 32.191406 40.566406 30.636719 L 40.566406 27.789062 C 40.566406 26.234375 41.800781 25.003906 43.355469 25.003906 Z M 34.988281 44.109375 L 21.625 44.109375 L 24.089844 40.484375 L 32.523438 40.484375 Z M 47.769531 39.511719 L 8.84375 39.511719 C 8.390625 39.511719 8.066406 39.125 8.066406 38.734375 L 8.066406 36.855469 L 48.546875 36.855469 L 48.546875 38.734375 C 48.546875 39.125 48.222656 39.511719 47.769531 39.511719 Z M 47.769531 39.511719 " fill-opacity="1" fill-rule="nonzero"/></g></svg>